name C:\Users\antoi\Documents\MyRepositories\upper-imu-dc\Results\main_tracking\Case_79\ABD01_angularVelocities_groundFrame.mot
datacolumns 4
datarows 58
range 3.01000000 3.58000000
endheader 
time	radius_imu_x	radius_imu_y	radius_imu_z	
          3.01000000	          0.07246989	         -0.33495507	          0.04704592	
          3.02000000	          0.05491048	         -0.35327002	          0.04865225	
          3.03000000	          0.03639817	         -0.38319291	          0.05403081	
          3.04000000	          0.01611765	         -0.41916930	          0.06175445	
          3.05000000	         -0.00601469	         -0.45708003	          0.06996583	
          3.06000000	         -0.03014897	         -0.49473989	          0.07806634	
          3.07000000	         -0.05640026	         -0.53103784	          0.08578490	
          3.08000000	         -0.08445022	         -0.56674403	          0.09331523	
          3.09000000	         -0.11402662	         -0.60235417	          0.10074855	
          3.10000000	         -0.14491094	         -0.63822039	          0.10816064	
          3.11000000	         -0.17685828	         -0.67474012	          0.11561408	
          3.12000000	         -0.20958801	         -0.71240849	          0.12321238	
          3.13000000	         -0.24281447	         -0.75163483	          0.13106619	
          3.14000000	         -0.27623839	         -0.79276328	          0.13930924	
          3.15000000	         -0.30961604	         -0.83566459	          0.14797073	
          3.16000000	         -0.34272276	         -0.87995855	          0.15704004	
          3.17000000	         -0.37534848	         -0.92502929	          0.16646157	
          3.18000000	         -0.40728703	         -0.97012492	          0.17615198	
          3.19000000	         -0.43834669	         -1.01434048	          0.18597538	
          3.20000000	         -0.46835124	         -1.05669453	          0.19574904	
          3.21000000	         -0.49713914	         -1.09625715	          0.20527457	
          3.22000000	         -0.52457641	         -1.13218862	          0.21434450	
          3.23000000	         -0.55056218	         -1.16379824	          0.22276588	
          3.24000000	         -0.57506234	         -1.19055011	          0.23036624	
          3.25000000	         -0.59811170	         -1.21213449	          0.23703151	
          3.26000000	         -0.61981728	         -1.22841991	          0.24270125	
          3.27000000	         -0.64034687	         -1.23945938	          0.24738364	
          3.28000000	         -0.65991149	         -1.24547338	          0.25115711	
          3.29000000	         -0.67874835	         -1.24681495	          0.25415535	
          3.30000000	         -0.69709019	         -1.24395859	          0.25656025	
          3.31000000	         -0.71514337	         -1.23745839	          0.25857910	
          3.32000000	         -0.73306650	         -1.22792870	          0.26043327	
          3.33000000	         -0.75096113	         -1.21601111	          0.26234359	
          3.34000000	         -0.76887109	         -1.20233518	          0.26451744	
          3.35000000	         -0.78678629	         -1.18748804	          0.26714249	
          3.36000000	         -0.80465160	         -1.17197376	          0.27037410	
          3.37000000	         -0.82237382	         -1.15618363	          0.27432528	
          3.38000000	         -0.83982743	         -1.14037402	          0.27905587	
          3.39000000	         -0.85685702	         -1.12464877	          0.28456198	
          3.40000000	         -0.87328206	         -1.10895665	          0.29077272	
          3.41000000	         -0.88891472	         -1.09310072	          0.29755200	
          3.42000000	         -0.90358803	         -1.07679363	          0.30468720	
          3.43000000	         -0.91713368	         -1.05971950	          0.31191336	
          3.44000000	         -0.92931315	         -1.04140138	          0.31894570	
          3.45000000	         -0.93999712	         -1.02148987	          0.32546001	
          3.46000000	         -0.94925879	         -0.99968909	          0.33111245	
          3.47000000	         -0.95726313	         -0.97576971	          0.33561305	
          3.48000000	         -0.96397534	         -0.94956426	          0.33871048	
          3.49000000	         -0.96933425	         -0.92103658	          0.34018336	
          3.50000000	         -0.97328154	         -0.89057682	          0.33987065	
          3.51000000	         -0.97565121	         -0.85805365	          0.33778696	
          3.52000000	         -0.97674495	         -0.82382141	          0.33398055	
          3.53000000	         -0.97705529	         -0.78881873	          0.32842172	
          3.54000000	         -0.97671391	         -0.75341057	          0.32131146	
          3.55000000	         -0.97567601	         -0.71797751	          0.31299163	
          3.56000000	         -0.97387661	         -0.68314702	          0.30378558	
          3.57000000	         -0.97146649	         -0.64937792	          0.29405658	
          3.58000000	         -0.96868142	         -0.61718685	          0.28417344	
